<svg viewBox="0 0 155 136" fill="none"
  xmlns="http://www.w3.org/2000/svg">
  <path d="M126.436 44.4867C124.812 43.9455 123.189 43.4344 121.565 42.9533C121.836 41.8409 122.076 40.7284 122.317 39.616C126.015 21.6968 123.58 7.29534 115.372 2.54495C107.464 -1.99498 94.5661 2.72534 81.5176 14.0902C80.2248 15.2026 78.962 16.3752 77.7594 17.5478C76.9476 16.766 76.1058 15.9843 75.2639 15.2327C61.584 3.08613 47.874 -2.02504 39.6661 2.75541C31.7888 7.3254 29.4437 20.8851 32.7509 37.8421C33.0817 39.5258 33.4425 41.1794 33.8634 42.8631C31.9392 43.4043 30.045 44.0056 28.2712 44.637C12.216 50.1991 0.700867 58.9783 0.700867 68.0582C0.700867 77.4387 12.9677 86.8493 29.6542 92.5618C31.0071 93.0128 32.3601 93.4637 33.7431 93.8546C33.2921 95.6585 32.9013 97.4324 32.5405 99.2664C29.3836 115.953 31.849 129.182 39.7262 133.722C47.844 138.412 61.4938 133.602 74.7829 121.966C75.8352 121.034 76.8875 120.072 77.9398 119.05C79.2626 120.343 80.6457 121.575 82.0287 122.778C94.8968 133.842 107.615 138.322 115.462 133.782C123.58 129.092 126.225 114.871 122.798 97.5527C122.527 96.2298 122.227 94.8768 121.896 93.4938C122.858 93.2232 123.79 92.9226 124.722 92.6219C142.07 86.8793 154.637 77.589 154.637 68.0582C154.637 58.9483 142.792 50.109 126.436 44.4867ZM85.7569 18.9608C96.9413 9.21954 107.374 5.40119 112.125 8.13718C117.206 11.0536 119.16 22.8393 115.973 38.3232C115.762 39.3454 115.552 40.3376 115.281 41.3298C108.607 39.8265 101.842 38.7441 95.0472 38.1428C91.1386 32.5506 86.8693 27.1989 82.2392 22.1779C83.4117 21.0654 84.5542 20.0131 85.7569 18.9608ZM50.9708 83.6623C52.5041 86.278 54.0676 88.8938 55.7212 91.4493C51.0309 90.9382 46.3707 90.1866 41.7707 89.1944C43.0936 84.8649 44.7472 80.3851 46.6714 75.8152C48.0544 78.4609 49.4675 81.0767 50.9708 83.6623ZM41.8609 47.4932C46.1903 46.5311 50.7904 45.7494 55.5708 45.1481C53.9774 47.6436 52.4139 50.1992 50.9407 52.7848C49.4675 55.3404 48.0243 57.9561 46.6714 60.6019C44.7772 56.1221 43.1838 51.7325 41.8609 47.4932ZM50.0989 68.2085C52.0832 64.0595 54.248 60.0006 56.5329 56.0018C58.8179 52.0031 61.2833 48.1246 63.869 44.3063C68.3789 43.9755 72.9789 43.7951 77.6692 43.7951C82.3594 43.7951 86.9895 43.9755 91.4693 44.3063C94.0249 48.0945 96.4603 51.973 98.7753 55.9417C101.09 59.9104 103.255 63.9693 105.3 68.0883C103.285 72.2373 101.12 76.3263 98.8054 80.3551C96.5204 84.3538 94.0851 88.2323 91.5295 92.0807C87.0497 92.4115 82.3895 92.5618 77.6692 92.5618C72.9488 92.5618 68.3789 92.4115 63.9592 92.1409C61.3435 88.3225 58.8781 84.414 56.563 80.4152C54.248 76.4165 52.1133 72.3576 50.0989 68.2085ZM104.398 83.6022C105.931 80.9564 107.374 78.2806 108.787 75.5746C110.711 79.9342 112.395 84.3538 113.868 88.8938C109.208 89.9461 104.488 90.7578 99.7374 91.299C101.361 88.7735 102.894 86.1878 104.398 83.6022ZM108.727 60.6019C107.314 57.9561 105.871 55.3103 104.368 52.7247C102.894 50.1691 101.361 47.6436 99.7675 45.1481C104.608 45.7494 109.238 46.5612 113.568 47.5534C112.185 52.0031 110.561 56.3326 108.727 60.6019ZM77.7293 26.7779C80.8862 30.2054 83.8627 33.8133 86.6288 37.5415C80.6757 37.2709 74.6927 37.2709 68.7396 37.5415C71.6861 33.663 74.7227 30.0551 77.7293 26.7779ZM42.853 8.34764C47.9041 5.40119 59.1186 9.6104 70.9344 20.0733C71.6861 20.7347 72.4377 21.4563 73.2194 22.1779C68.5592 27.1989 64.2598 32.5506 60.3212 38.1428C53.5264 38.7441 46.7917 39.7964 40.1171 41.2696C39.7262 39.7363 39.3955 38.1729 39.0648 36.6094C36.2386 22.0576 38.1026 11.0836 42.853 8.34764ZM35.4869 87.6009C34.2242 87.2401 32.9915 86.8493 31.7588 86.4284C25.3548 84.414 18.0789 81.227 12.8174 77.0479C9.78072 74.9433 7.73625 71.6962 7.165 68.0582C7.165 62.5562 16.6658 55.5208 30.3758 50.7403C32.0895 50.139 33.8333 49.5978 35.5771 49.0867C37.6216 55.611 40.087 62.015 42.9432 68.2085C40.0569 74.4923 37.5615 80.9865 35.4869 87.6009ZM70.5436 117.065C65.5827 121.605 59.8402 125.213 53.5865 127.679C50.2492 129.272 46.4008 129.422 42.9733 128.069C38.1928 125.303 36.2085 114.69 38.9144 100.409C39.2451 98.7253 39.6059 97.0416 40.0269 95.388C46.7616 96.8311 53.5564 97.8233 60.4415 98.3344C64.4102 103.957 68.7697 109.338 73.4299 114.39C72.4678 115.322 71.5057 116.224 70.5436 117.065ZM77.9097 109.759C74.843 106.452 71.7763 102.784 68.7998 98.8455C71.6861 98.9658 74.6626 99.0259 77.6692 99.0259C80.7659 99.0259 83.8026 98.9658 86.8092 98.8155C84.0431 102.634 81.0666 106.272 77.9097 109.759ZM117.206 118.779C116.935 122.447 115.131 125.875 112.245 128.19C107.464 130.956 97.272 127.348 86.268 117.907C85.0052 116.825 83.7424 115.652 82.4496 114.45C87.0497 109.369 91.2889 103.987 95.1374 98.3344C102.022 97.7631 108.877 96.7108 115.642 95.1775C115.943 96.4102 116.213 97.6429 116.454 98.8455C117.927 105.34 118.168 112.105 117.206 118.779ZM122.678 86.4584C121.836 86.729 120.994 86.9996 120.122 87.2401C118.017 80.6858 115.432 74.2818 112.455 68.0582C115.342 61.9248 117.777 55.611 119.821 49.1468C121.385 49.5978 122.888 50.0789 124.331 50.5599C138.342 55.3705 148.173 62.5261 148.173 67.9981C148.173 73.891 137.68 81.4976 122.678 86.4584ZM77.6692 81.9486C85.2758 81.9486 91.4393 75.7851 91.4393 68.1785C91.4393 60.5718 85.2758 54.4084 77.6692 54.4084C70.0625 54.4084 63.8991 60.5718 63.8991 68.1785C63.8991 75.7851 70.0625 81.9486 77.6692 81.9486Z" fill="currentColor"/>
</svg>
